<?xml version="1.0" encoding="UTF-8"?>
<svg id="Layer_2" data-name="Layer 2" xmlns="http://www.w3.org/2000/svg" viewBox="0 0 51.76 51.76">
  <defs>
    <style>
      .cls-1 {
        stroke: #cfe9ff;
        stroke-width: 2px;
      }

      .cls-1, .cls-2 {
        stroke-miterlimit: 10;
      }

      .cls-1, .cls-2, .cls-3 {
        fill: none;
      }

      .cls-2 {
        stroke-width: 2.6px;
      }

      .cls-2, .cls-4, .cls-3 {
        stroke: #219bff;
      }

      .cls-4 {
        fill: #fff;
      }

      .cls-4, .cls-3 {
        stroke-linecap: round;
        stroke-linejoin: round;
        stroke-width: 2.62px;
      }

      .cls-5 {
        fill: #96d0ff;
      }

      .cls-6 {
        fill: #219bff;
      }
    </style>
  </defs>
  <g id="main">
    <g>
      <rect class="cls-4" x="1.31" y="1.31" width="49.14" height="49.14" rx="7.16" ry="7.16"/>
      <rect class="cls-5" x="11.74" y="6.83" width="4.26" height="4.26"/>
      <rect class="cls-5" x="11.74" y="15.35" width="4.26" height="4.26"/>
      <rect class="cls-5" x="11.74" y="23.87" width="4.26" height="4.26"/>
      <rect class="cls-5" x="11.74" y="32.39" width="4.26" height="4.26"/>
      <rect class="cls-5" x="16" y="2.56" width="4.26" height="4.26"/>
      <rect class="cls-5" x="16" y="11.09" width="4.26" height="4.26"/>
      <rect class="cls-5" x="16" y="19.61" width="4.26" height="4.26"/>
      <rect class="cls-5" x="16" y="28.13" width="4.26" height="4.26"/>
      <rect class="cls-5" x="16" y="36.66" width="4.26" height="4.26"/>
      <rect class="cls-5" x="20.27" y="6.83" width="4.26" height="4.26"/>
      <rect class="cls-5" x="20.27" y="15.35" width="4.26" height="4.26"/>
      <rect class="cls-5" x="20.27" y="23.87" width="4.26" height="4.26"/>
      <rect class="cls-5" x="20.27" y="32.39" width="4.26" height="4.26"/>
      <rect class="cls-5" x="11.74" y="40.92" width="4.26" height="4.26"/>
      <rect class="cls-5" x="7.65" y="16.96" width="3.03" height="3.03"/>
      <rect class="cls-5" x="7.65" y="23.02" width="3.03" height="3.03"/>
      <rect class="cls-5" x="7.65" y="29.07" width="3.03" height="3.03"/>
      <rect class="cls-5" x="7.65" y="35.12" width="3.03" height="3.03"/>
      <rect class="cls-5" x="7.65" y="46.3" width="3.03" height="1.9"/>
      <rect class="cls-5" x="7.65" y="41.17" width="3.03" height="3.03"/>
      <rect class="cls-5" x="7.65" y="4.57" width="3.03" height="3.03"/>
      <rect class="cls-5" x="7.65" y="10.62" width="3.03" height="3.03"/>
      <rect class="cls-5" x="3.56" y="19.24" width="2.87" height="2.87"/>
      <rect class="cls-5" x="3.56" y="24.97" width="2.87" height="2.87"/>
      <rect class="cls-5" x="3.56" y="30.71" width="2.87" height="2.87"/>
      <rect class="cls-5" x="3.56" y="36.44" width="2.87" height="2.87"/>
      <rect class="cls-5" x="3.56" y="42.17" width="2.87" height="2.87"/>
      <rect class="cls-5" x="3.56" y="7.5" width="2.87" height="2.87"/>
      <rect class="cls-5" x="3.56" y="13.23" width="2.87" height="2.87"/>
      <rect class="cls-5" x="20.27" y="40.92" width="4.26" height="4.26"/>
      <rect class="cls-5" x="16" y="45.18" width="4.26" height="4.26"/>
      <line class="cls-1" x1="36.51" y1="31.47" x2="26.14" y2="41.84"/>
      <polyline class="cls-1" points="33.64 22.8 25.67 14.83 25.83 36.35 33.64 28.54"/>
      <line class="cls-1" x1="25.88" y1="9.4" x2="36.3" y2="19.82"/>
      <polyline class="cls-1" points="25.86 3.35 41.29 18.77 49.61 18.77"/>
      <polyline class="cls-1" points="26.51 20.89 31.29 25.67 26.51 30.45"/>
      <line class="cls-1" x1="41.88" y1="14.08" x2="49.15" y2="14.08"/>
      <line class="cls-1" x1="37.47" y1="9.84" x2="49.33" y2="9.84"/>
      <line class="cls-1" x1="32.64" y1="5.6" x2="49.33" y2="5.6"/>
      <polyline class="cls-1" points="25.86 48.41 41.29 32.99 49.61 32.99"/>
      <line class="cls-1" x1="41.88" y1="37.68" x2="49.15" y2="37.68"/>
      <line class="cls-1" x1="37.47" y1="41.92" x2="49.33" y2="41.92"/>
      <line class="cls-1" x1="32.64" y1="46.16" x2="49.33" y2="46.16"/>
      <line class="cls-3" x1="25.88" y1="3.2" x2="25.88" y2="50.02"/>
      <path class="cls-2" d="M47.38,2.61c1.86,1.3,3.07,3.46,3.07,5.9v34.85c0,3.92-3.18,7.09-7.09,7.09h-15.95"/>
      <polygon class="cls-6" points="42.06 22.34 38.22 22.34 36.3 25.67 38.22 29 42.06 29 43.98 25.67 42.06 22.34"/>
    </g>
  </g>
</svg>