<?xml version="1.0" encoding="UTF-8"?>
<svg id="Layer_1" xmlns="http://www.w3.org/2000/svg" version="1.1" viewBox="0 0 800 800">
  <!-- Generator: Adobe Illustrator 30.6.0, SVG Export Plug-In . SVG Version: 2.1.4 Build 109)  -->
  <defs>
    <style>
      .st0 {
        fill: none;
      }

      .st1 {
        fill: #91c15a;
      }
    </style>
  </defs>
  <g id="Layer_2">
    <g id="invisible_box">
      <rect class="st0" width="800" height="800"/>
    </g>
    <g id="Q3_icons">
      <path class="st1" d="M625,66.7H175c-59.8,0-108.3,48.5-108.3,108.3v450c0,59.8,48.5,108.3,108.3,108.3h450c59.8,0,108.3-48.5,108.3-108.3V175c0-59.8-48.5-108.3-108.3-108.3ZM560,435c0,1.7,0,3.3-3.3,5l-311.7,156.7c-1.7,1.7-5-1.7-5-3.3v-80c0-1.7,0-3.3,1.7-3.3l226.7-113.3-226.7-115c-1.7,0-1.7-1.7-1.7-3.3v-80c0-1.7,3.3-5,5-3.3l311.7,156.7c2.1,1.6,3.3,4,3.3,6.7v76.7Z"/>
    </g>
  </g>
</svg>